<?xml version="1.0" encoding="utf-8"?>
<!-- Generator: Adobe Illustrator 22.0.1, SVG Export Plug-In . SVG Version: 6.00 Build 0)  -->
<svg version="1.1" id="Calque_1" xmlns="http://www.w3.org/2000/svg" xmlns:xlink="http://www.w3.org/1999/xlink" x="0px" y="0px"
	 viewBox="0 0 1024 768" style="enable-background:new 0 0 1024 768;" xml:space="preserve">
<style type="text/css">
	.st0{fill:#FFFFFF;}
</style>
<g>
	<g>
		<path class="st0" d="M32.8,290.6h64.4c11.9,0,22.2,2,30.9,6.1c8.7,4.1,15.8,9.6,21.3,16.6c5.5,7,9.6,15.3,12.3,24.7
			c2.7,9.4,4,19.5,4,30.2c0,10.7-1.3,20.8-4,30.2c-2.7,9.4-6.8,17.7-12.3,24.7c-5.5,7-12.6,12.6-21.3,16.6c-8.7,4.1-19,6.1-30.9,6.1
			H32.8V290.6z M60,423.8h26.8c10.6,0,19.3-1.4,26-4.2c6.7-2.8,12-6.7,15.9-11.7c3.8-5,6.5-10.9,7.8-17.6c1.4-6.7,2.1-14,2.1-21.9
			c0-7.8-0.7-15.1-2.1-21.9c-1.4-6.7-4-12.6-7.8-17.6c-3.8-5-9.1-8.9-15.9-11.7c-6.7-2.8-15.4-4.2-26-4.2H60V423.8z"/>
		<path class="st0" d="M197,396.2c0,4.3,0.6,8.6,1.8,12.6c1.2,4.1,3.1,7.6,5.5,10.7c2.5,3,5.6,5.5,9.4,7.3c3.8,1.8,8.3,2.7,13.5,2.7
			c7.3,0,13.1-1.6,17.5-4.7c4.4-3.1,7.7-7.8,9.9-14h23.5c-1.3,6.1-3.6,11.5-6.7,16.3c-3.2,4.8-7,8.8-11.5,12.1
			c-4.5,3.3-9.5,5.7-15.1,7.4c-5.6,1.7-11.4,2.5-17.5,2.5c-8.8,0-16.7-1.4-23.5-4.3c-6.8-2.9-12.6-7-17.3-12.2
			c-4.7-5.2-8.3-11.5-10.7-18.7c-2.4-7.3-3.6-15.2-3.6-23.9c0-8,1.3-15.6,3.8-22.7c2.5-7.2,6.2-13.5,10.9-18.9
			c4.7-5.4,10.4-9.8,17.1-12.9c6.7-3.2,14.2-4.8,22.6-4.8c8.8,0,16.8,1.8,23.8,5.5c7,3.7,12.9,8.6,17.5,14.7c4.6,6.1,8,13.1,10.1,21
			c2.1,7.9,2.6,16.1,1.6,24.5H197z M254.9,379.8c-0.3-3.9-1.1-7.7-2.5-11.3c-1.4-3.6-3.3-6.8-5.7-9.5c-2.4-2.7-5.3-4.9-8.7-6.5
			c-3.4-1.7-7.2-2.5-11.4-2.5c-4.4,0-8.3,0.8-11.9,2.3c-3.6,1.5-6.6,3.6-9.1,6.3c-2.5,2.7-4.6,5.8-6.1,9.5
			c-1.5,3.6-2.4,7.5-2.5,11.8H254.9z"/>
		<path class="st0" d="M309.3,396.2c0,4.3,0.6,8.6,1.8,12.6c1.2,4.1,3.1,7.6,5.5,10.7c2.5,3,5.6,5.5,9.4,7.3
			c3.8,1.8,8.3,2.7,13.5,2.7c7.3,0,13.1-1.6,17.5-4.7c4.4-3.1,7.7-7.8,9.9-14h23.5c-1.3,6.1-3.6,11.5-6.7,16.3
			c-3.2,4.8-7,8.8-11.5,12.1c-4.5,3.3-9.5,5.7-15.1,7.4c-5.6,1.7-11.4,2.5-17.5,2.5c-8.8,0-16.7-1.4-23.5-4.3
			c-6.8-2.9-12.6-7-17.3-12.2c-4.7-5.2-8.3-11.5-10.7-18.7c-2.4-7.3-3.6-15.2-3.6-23.9c0-8,1.3-15.6,3.8-22.7
			c2.5-7.2,6.2-13.5,10.9-18.9c4.7-5.4,10.4-9.8,17.1-12.9c6.7-3.2,14.2-4.8,22.6-4.8c8.8,0,16.8,1.8,23.8,5.5
			c7,3.7,12.9,8.6,17.5,14.7c4.6,6.1,8,13.1,10.1,21c2.1,7.9,2.6,16.1,1.6,24.5H309.3z M367.2,379.8c-0.3-3.9-1.1-7.7-2.5-11.3
			c-1.4-3.6-3.3-6.8-5.7-9.5c-2.4-2.7-5.3-4.9-8.7-6.5c-3.4-1.7-7.2-2.5-11.4-2.5c-4.4,0-8.3,0.8-11.9,2.3c-3.6,1.5-6.6,3.6-9.1,6.3
			c-2.5,2.7-4.6,5.8-6.1,9.5c-1.5,3.6-2.4,7.5-2.5,11.8H367.2z"/>
		<path class="st0" d="M402.9,333.5h23.5v15.2h0.4c3.5-6.5,8.3-11.2,14.6-14c6.2-2.8,13-4.2,20.2-4.2c8.8,0,16.6,1.6,23.2,4.7
			c6.6,3.1,12.1,7.4,16.4,12.8c4.4,5.4,7.6,11.8,9.8,19c2.2,7.3,3.3,15,3.3,23.3c0,7.5-1,14.9-2.9,22c-2,7.1-4.9,13.4-8.9,18.8
			c-4,5.4-9,9.8-15.1,13.1c-6.1,3.3-13.3,4.9-21.5,4.9c-3.6,0-7.3-0.3-10.9-1c-3.6-0.7-7.1-1.7-10.4-3.2c-3.3-1.4-6.4-3.3-9.2-5.5
			c-2.8-2.2-5.2-4.9-7.1-7.9h-0.4v56.1h-24.8V333.5z M489.5,389.9c0-5.1-0.7-10-2-14.8s-3.3-9-5.9-12.7c-2.6-3.7-5.9-6.7-9.8-8.9
			c-3.9-2.2-8.4-3.4-13.5-3.4c-10.4,0-18.3,3.6-23.6,10.9c-5.3,7.3-7.9,16.9-7.9,28.9c0,5.7,0.7,10.9,2.1,15.8
			c1.4,4.9,3.4,9,6.2,12.5c2.8,3.5,6.1,6.2,9.9,8.3c3.8,2,8.3,3,13.4,3c5.7,0,10.4-1.2,14.4-3.5c3.9-2.3,7.1-5.3,9.7-9
			c2.5-3.7,4.4-7.9,5.4-12.6C488.9,399.6,489.5,394.8,489.5,389.9z"/>
		<path class="st0" d="M527.1,290.6h24.8v23.5h-24.8V290.6z M527.1,333.5h24.8V446h-24.8V333.5z"/>
		<path class="st0" d="M676.1,446h-23.5v-15.2h-0.4c-3.3,6.5-8.2,11.2-14.6,14c-6.4,2.8-13.1,4.2-20.2,4.2c-8.8,0-16.6-1.6-23.2-4.7
			c-6.6-3.1-12.1-7.4-16.4-12.7c-4.4-5.4-7.6-11.7-9.8-19c-2.2-7.3-3.3-15.2-3.3-23.6c0-10.2,1.4-18.9,4.1-26.3
			c2.8-7.4,6.4-13.5,11-18.3c4.6-4.8,9.8-8.3,15.7-10.6c5.9-2.2,11.9-3.4,17.9-3.4c3.5,0,7,0.3,10.7,1c3.6,0.7,7.1,1.7,10.4,3.2
			c3.3,1.4,6.4,3.3,9.2,5.5c2.8,2.3,5.2,4.9,7.1,7.9h0.4v-57.4h24.8V446z M589.5,390.9c0,4.8,0.6,9.5,1.8,14.1
			c1.2,4.6,3.1,8.8,5.7,12.4s5.8,6.5,9.7,8.7c3.9,2.2,8.6,3.3,13.9,3.3c5.5,0,10.3-1.2,14.2-3.5c4-2.3,7.3-5.4,9.8-9.1
			c2.5-3.8,4.4-8,5.7-12.7c1.2-4.7,1.8-9.5,1.8-14.5c0-12.5-2.8-22.2-8.4-29.2c-5.6-7-13.2-10.4-22.7-10.4c-5.8,0-10.7,1.2-14.7,3.6
			c-4,2.4-7.3,5.5-9.8,9.4c-2.5,3.8-4.4,8.2-5.4,13.1C590.1,380.9,589.5,385.9,589.5,390.9z"/>
		<path class="st0" d="M746,449c-9,0-17-1.5-24-4.5c-7-3-13-7.1-17.8-12.3c-4.9-5.2-8.6-11.5-11.1-18.7c-2.5-7.3-3.8-15.2-3.8-23.9
			c0-8.6,1.3-16.5,3.8-23.7c2.5-7.3,6.2-13.5,11.1-18.7c4.9-5.2,10.8-9.3,17.8-12.3c7-3,15-4.5,24-4.5c9,0,17,1.5,24,4.5
			c7,3,13,7.1,17.8,12.3c4.9,5.2,8.6,11.5,11.1,18.7c2.5,7.3,3.8,15.2,3.8,23.7c0,8.7-1.3,16.7-3.8,23.9
			c-2.5,7.3-6.2,13.5-11.1,18.7c-4.9,5.2-10.8,9.3-17.8,12.3C763,447.5,755,449,746,449z M746,429.5c5.5,0,10.3-1.2,14.4-3.5
			c4.1-2.3,7.4-5.4,10-9.1c2.6-3.8,4.5-8,5.8-12.7c1.2-4.7,1.8-9.5,1.8-14.5c0-4.8-0.6-9.6-1.8-14.4c-1.2-4.8-3.2-9-5.8-12.7
			c-2.6-3.7-5.9-6.7-10-9c-4.1-2.3-8.8-3.5-14.4-3.5c-5.5,0-10.3,1.2-14.4,3.5c-4.1,2.3-7.4,5.3-10,9c-2.6,3.7-4.5,7.9-5.8,12.7
			c-1.2,4.8-1.8,9.6-1.8,14.4c0,4.9,0.6,9.8,1.8,14.5c1.2,4.7,3.2,9,5.8,12.7c2.6,3.8,5.9,6.8,10,9.1
			C735.7,428.3,740.5,429.5,746,429.5z"/>
		<path class="st0" d="M866.3,449c-9,0-17-1.5-24-4.5c-7-3-13-7.1-17.8-12.3c-4.9-5.2-8.6-11.5-11.1-18.7
			c-2.5-7.3-3.8-15.2-3.8-23.9c0-8.6,1.3-16.5,3.8-23.7c2.5-7.3,6.2-13.5,11.1-18.7c4.9-5.2,10.8-9.3,17.8-12.3c7-3,15-4.5,24-4.5
			c9,0,17,1.5,24,4.5c7,3,13,7.1,17.8,12.3c4.9,5.2,8.6,11.5,11.1,18.7c2.5,7.3,3.8,15.2,3.8,23.7c0,8.7-1.3,16.7-3.8,23.9
			c-2.5,7.3-6.2,13.5-11.1,18.7c-4.9,5.2-10.8,9.3-17.8,12.3C883.3,447.5,875.3,449,866.3,449z M866.3,429.5
			c5.5,0,10.3-1.2,14.4-3.5c4.1-2.3,7.4-5.4,10-9.1c2.6-3.8,4.5-8,5.8-12.7c1.2-4.7,1.8-9.5,1.8-14.5c0-4.8-0.6-9.6-1.8-14.4
			c-1.2-4.8-3.2-9-5.8-12.7c-2.6-3.7-5.9-6.7-10-9c-4.1-2.3-8.8-3.5-14.4-3.5c-5.5,0-10.3,1.2-14.4,3.5c-4.1,2.3-7.4,5.3-10,9
			c-2.6,3.7-4.5,7.9-5.8,12.7s-1.8,9.6-1.8,14.4c0,4.9,0.6,9.8,1.8,14.5c1.2,4.7,3.2,9,5.8,12.7c2.6,3.8,5.9,6.8,10,9.1
			C856,428.3,860.8,429.5,866.3,429.5z"/>
	</g>
	<rect x="859.8" y="262" class="st0" width="15.5" height="40.6"/>
	
		<rect x="920.6" y="305.2" transform="matrix(0.7071 -0.7071 0.7071 0.7071 54.2842 757.0273)" class="st0" width="40.6" height="15.5"/>
	<rect x="950.9" y="378.8" class="st0" width="40.6" height="15.5"/>
	<g>
		<path class="st0" d="M545.4,473.7h6.4l13.3,34.5h-6.5l-3.2-9.1h-13.8l-3.2,9.1h-6.2L545.4,473.7z M543.3,494.5h10.5l-5.2-14.8
			h-0.1L543.3,494.5z"/>
		<path class="st0" d="M591.2,508.2h-5.2v-3.4h-0.1c-0.7,1.4-1.8,2.5-3.2,3.1c-1.4,0.6-2.9,0.9-4.5,0.9c-2,0-3.7-0.3-5.1-1
			c-1.5-0.7-2.7-1.6-3.6-2.8c-1-1.2-1.7-2.6-2.2-4.2c-0.5-1.6-0.7-3.4-0.7-5.2c0-2.3,0.3-4.2,0.9-5.9c0.6-1.6,1.4-3,2.4-4.1
			c1-1.1,2.2-1.8,3.5-2.3c1.3-0.5,2.6-0.7,4-0.7c0.8,0,1.6,0.1,2.4,0.2c0.8,0.1,1.6,0.4,2.3,0.7c0.7,0.3,1.4,0.7,2.1,1.2
			c0.6,0.5,1.2,1.1,1.6,1.8h0.1v-12.8h5.5V508.2z M571.9,496c0,1.1,0.1,2.1,0.4,3.1c0.3,1,0.7,2,1.3,2.8c0.6,0.8,1.3,1.4,2.2,1.9
			c0.9,0.5,1.9,0.7,3.1,0.7c1.2,0,2.3-0.3,3.2-0.8c0.9-0.5,1.6-1.2,2.2-2c0.6-0.8,1-1.8,1.3-2.8c0.3-1,0.4-2.1,0.4-3.2
			c0-2.8-0.6-4.9-1.9-6.5c-1.2-1.5-2.9-2.3-5.1-2.3c-1.3,0-2.4,0.3-3.3,0.8c-0.9,0.5-1.6,1.2-2.2,2.1c-0.6,0.9-1,1.8-1.2,2.9
			C572,493.8,571.9,494.9,571.9,496z"/>
		<path class="st0" d="M620.7,508.2h-5.2v-3.4h-0.1c-0.7,1.4-1.8,2.5-3.2,3.1c-1.4,0.6-2.9,0.9-4.5,0.9c-2,0-3.7-0.3-5.1-1
			c-1.5-0.7-2.7-1.6-3.6-2.8c-1-1.2-1.7-2.6-2.2-4.2c-0.5-1.6-0.7-3.4-0.7-5.2c0-2.3,0.3-4.2,0.9-5.9c0.6-1.6,1.4-3,2.4-4.1
			c1-1.1,2.2-1.8,3.5-2.3c1.3-0.5,2.6-0.7,4-0.7c0.8,0,1.6,0.1,2.4,0.2c0.8,0.1,1.6,0.4,2.3,0.7c0.7,0.3,1.4,0.7,2.1,1.2
			c0.6,0.5,1.2,1.1,1.6,1.8h0.1v-12.8h5.5V508.2z M601.5,496c0,1.1,0.1,2.1,0.4,3.1c0.3,1,0.7,2,1.3,2.8c0.6,0.8,1.3,1.4,2.2,1.9
			c0.9,0.5,1.9,0.7,3.1,0.7c1.2,0,2.3-0.3,3.2-0.8c0.9-0.5,1.6-1.2,2.2-2c0.6-0.8,1-1.8,1.3-2.8c0.3-1,0.4-2.1,0.4-3.2
			c0-2.8-0.6-4.9-1.9-6.5c-1.2-1.5-2.9-2.3-5.1-2.3c-1.3,0-2.4,0.3-3.3,0.8c-0.9,0.5-1.6,1.2-2.2,2.1c-0.6,0.9-1,1.8-1.2,2.9
			C601.6,493.8,601.5,494.9,601.5,496z"/>
		<path class="st0" d="M626.8,473.7h5.5v5.2h-5.5V473.7z M626.8,483.2h5.5v25h-5.5V483.2z"/>
		<path class="st0" d="M655.2,491.6c-0.2-1.5-0.8-2.7-1.9-3.5c-1-0.8-2.3-1.2-3.8-1.2c-0.7,0-1.5,0.1-2.3,0.4
			c-0.8,0.2-1.5,0.7-2.2,1.4c-0.7,0.7-1.2,1.6-1.7,2.8c-0.5,1.2-0.7,2.7-0.7,4.6c0,1,0.1,2.1,0.4,3.1c0.2,1,0.6,2,1.2,2.8
			c0.5,0.8,1.2,1.5,2.1,2c0.8,0.5,1.9,0.8,3,0.8c1.6,0,2.9-0.5,4-1.5c1-1,1.7-2.4,2-4.2h5.5c-0.5,3.3-1.7,5.7-3.7,7.5
			c-2,1.7-4.5,2.6-7.8,2.6c-2,0-3.7-0.3-5.2-1c-1.5-0.7-2.8-1.6-3.8-2.7c-1-1.1-1.8-2.5-2.3-4.1c-0.5-1.6-0.8-3.3-0.8-5.1
			c0-1.9,0.3-3.6,0.8-5.3c0.5-1.6,1.3-3.1,2.3-4.3c1-1.2,2.3-2.2,3.8-2.9c1.5-0.7,3.3-1,5.4-1c1.5,0,2.8,0.2,4.1,0.6
			c1.3,0.4,2.5,0.9,3.5,1.7c1,0.7,1.8,1.7,2.5,2.8c0.6,1.1,1,2.5,1.2,4H655.2z"/>
		<path class="st0" d="M662.7,483.2h4.2v-7.5h5.5v7.5h5v4.1h-5v13.3c0,0.6,0,1.1,0.1,1.5c0,0.4,0.2,0.8,0.3,1.1
			c0.2,0.3,0.4,0.5,0.8,0.7c0.4,0.1,0.8,0.2,1.4,0.2c0.4,0,0.8,0,1.2,0c0.4,0,0.8-0.1,1.2-0.2v4.3c-0.6,0.1-1.2,0.1-1.8,0.2
			c-0.6,0.1-1.2,0.1-1.8,0.1c-1.5,0-2.6-0.1-3.5-0.4c-0.9-0.3-1.6-0.7-2.1-1.2c-0.5-0.5-0.8-1.2-1-2c-0.2-0.8-0.3-1.7-0.3-2.8v-14.8
			h-4.2V483.2z"/>
		<path class="st0" d="M685.6,497.1c0,1,0.1,1.9,0.4,2.8c0.3,0.9,0.7,1.7,1.2,2.4c0.5,0.7,1.2,1.2,2.1,1.6c0.8,0.4,1.8,0.6,3,0.6
			c1.6,0,2.9-0.3,3.9-1c1-0.7,1.7-1.7,2.2-3.1h5.2c-0.3,1.4-0.8,2.6-1.5,3.6c-0.7,1.1-1.6,2-2.6,2.7c-1,0.7-2.1,1.3-3.4,1.6
			c-1.2,0.4-2.5,0.6-3.9,0.6c-2,0-3.7-0.3-5.2-1c-1.5-0.6-2.8-1.5-3.8-2.7c-1-1.2-1.8-2.5-2.4-4.2c-0.5-1.6-0.8-3.4-0.8-5.3
			c0-1.8,0.3-3.5,0.8-5.1c0.6-1.6,1.4-3,2.4-4.2s2.3-2.2,3.8-2.9c1.5-0.7,3.2-1.1,5-1.1c2,0,3.7,0.4,5.3,1.2s2.9,1.9,3.9,3.3
			c1,1.4,1.8,2.9,2.2,4.7c0.5,1.8,0.6,3.6,0.4,5.4H685.6z M698.5,493.5c-0.1-0.9-0.3-1.7-0.6-2.5c-0.3-0.8-0.7-1.5-1.3-2.1
			c-0.5-0.6-1.2-1.1-1.9-1.4c-0.8-0.4-1.6-0.6-2.5-0.6c-1,0-1.8,0.2-2.6,0.5c-0.8,0.3-1.5,0.8-2,1.4c-0.6,0.6-1,1.3-1.4,2.1
			c-0.3,0.8-0.5,1.7-0.6,2.6H698.5z"/>
		<path class="st0" d="M731.8,508.2h-5.2v-3.4h-0.1c-0.7,1.4-1.8,2.5-3.2,3.1c-1.4,0.6-2.9,0.9-4.5,0.9c-2,0-3.7-0.3-5.1-1
			c-1.5-0.7-2.7-1.6-3.6-2.8c-1-1.2-1.7-2.6-2.2-4.2c-0.5-1.6-0.7-3.4-0.7-5.2c0-2.3,0.3-4.2,0.9-5.9c0.6-1.6,1.4-3,2.4-4.1
			c1-1.1,2.2-1.8,3.5-2.3c1.3-0.5,2.6-0.7,4-0.7c0.8,0,1.6,0.1,2.4,0.2c0.8,0.1,1.6,0.4,2.3,0.7c0.7,0.3,1.4,0.7,2.1,1.2
			c0.6,0.5,1.2,1.1,1.6,1.8h0.1v-12.8h5.5V508.2z M712.5,496c0,1.1,0.1,2.1,0.4,3.1c0.3,1,0.7,2,1.3,2.8c0.6,0.8,1.3,1.4,2.2,1.9
			c0.9,0.5,1.9,0.7,3.1,0.7c1.2,0,2.3-0.3,3.2-0.8c0.9-0.5,1.6-1.2,2.2-2c0.6-0.8,1-1.8,1.3-2.8c0.3-1,0.4-2.1,0.4-3.2
			c0-2.8-0.6-4.9-1.9-6.5c-1.2-1.5-2.9-2.3-5.1-2.3c-1.3,0-2.4,0.3-3.3,0.8c-0.9,0.5-1.6,1.2-2.2,2.1c-0.6,0.9-1,1.8-1.2,2.9
			C712.6,493.8,712.5,494.9,712.5,496z"/>
		<path class="st0" d="M748.7,483.2h4.2v-7.5h5.5v7.5h5v4.1h-5v13.3c0,0.6,0,1.1,0.1,1.5c0,0.4,0.2,0.8,0.3,1.1
			c0.2,0.3,0.4,0.5,0.8,0.7c0.4,0.1,0.8,0.2,1.4,0.2c0.4,0,0.8,0,1.2,0c0.4,0,0.8-0.1,1.2-0.2v4.3c-0.6,0.1-1.2,0.1-1.8,0.2
			c-0.6,0.1-1.2,0.1-1.8,0.1c-1.5,0-2.6-0.1-3.5-0.4c-0.9-0.3-1.6-0.7-2.1-1.2c-0.5-0.5-0.8-1.2-1-2c-0.2-0.8-0.3-1.7-0.3-2.8v-14.8
			h-4.2V483.2z"/>
		<path class="st0" d="M778.8,508.9c-2,0-3.8-0.3-5.3-1c-1.6-0.7-2.9-1.6-4-2.7s-1.9-2.5-2.5-4.2c-0.6-1.6-0.8-3.4-0.8-5.3
			c0-1.9,0.3-3.7,0.8-5.3c0.6-1.6,1.4-3,2.5-4.2s2.4-2.1,4-2.7c1.6-0.7,3.3-1,5.3-1c2,0,3.8,0.3,5.3,1c1.6,0.7,2.9,1.6,4,2.7
			c1.1,1.2,1.9,2.5,2.5,4.2c0.6,1.6,0.8,3.4,0.8,5.3c0,1.9-0.3,3.7-0.8,5.3c-0.6,1.6-1.4,3-2.5,4.2c-1.1,1.2-2.4,2.1-4,2.7
			C782.5,508.6,780.8,508.9,778.8,508.9z M778.8,504.5c1.2,0,2.3-0.3,3.2-0.8c0.9-0.5,1.6-1.2,2.2-2c0.6-0.8,1-1.8,1.3-2.8
			c0.3-1,0.4-2.1,0.4-3.2c0-1.1-0.1-2.1-0.4-3.2s-0.7-2-1.3-2.8c-0.6-0.8-1.3-1.5-2.2-2c-0.9-0.5-2-0.8-3.2-0.8
			c-1.2,0-2.3,0.3-3.2,0.8c-0.9,0.5-1.6,1.2-2.2,2c-0.6,0.8-1,1.8-1.3,2.8s-0.4,2.1-0.4,3.2c0,1.1,0.1,2.2,0.4,3.2
			c0.3,1,0.7,2,1.3,2.8c0.6,0.8,1.3,1.5,2.2,2C776.5,504.3,777.5,504.5,778.8,504.5z"/>
		<path class="st0" d="M809.4,483.2h5.2v4.8h0.1c0.2-0.7,0.5-1.3,0.9-2c0.5-0.6,1-1.2,1.7-1.8c0.7-0.5,1.4-1,2.2-1.3
			s1.6-0.5,2.5-0.5c0.6,0,1.1,0,1.3,0c0.2,0,0.5,0.1,0.7,0.1v5.3c-0.4-0.1-0.8-0.1-1.2-0.2c-0.4,0-0.8-0.1-1.2-0.1
			c-0.9,0-1.8,0.2-2.6,0.6c-0.8,0.4-1.5,0.9-2.2,1.6c-0.6,0.7-1.1,1.6-1.4,2.7c-0.4,1.1-0.5,2.3-0.5,3.7v11.9h-5.5V483.2z"/>
		<path class="st0" d="M829.9,497.1c0,1,0.1,1.9,0.4,2.8c0.3,0.9,0.7,1.7,1.2,2.4c0.5,0.7,1.2,1.2,2.1,1.6c0.8,0.4,1.8,0.6,3,0.6
			c1.6,0,2.9-0.3,3.9-1c1-0.7,1.7-1.7,2.2-3.1h5.2c-0.3,1.4-0.8,2.6-1.5,3.6c-0.7,1.1-1.6,2-2.6,2.7c-1,0.7-2.1,1.3-3.4,1.6
			c-1.2,0.4-2.5,0.6-3.9,0.6c-2,0-3.7-0.3-5.2-1c-1.5-0.6-2.8-1.5-3.8-2.7c-1-1.2-1.8-2.5-2.4-4.2c-0.5-1.6-0.8-3.4-0.8-5.3
			c0-1.8,0.3-3.5,0.8-5.1c0.6-1.6,1.4-3,2.4-4.2s2.3-2.2,3.8-2.9c1.5-0.7,3.2-1.1,5-1.1c2,0,3.7,0.4,5.3,1.2s2.9,1.9,3.9,3.3
			c1,1.4,1.8,2.9,2.2,4.7c0.5,1.8,0.6,3.6,0.4,5.4H829.9z M842.7,493.5c-0.1-0.9-0.3-1.7-0.6-2.5c-0.3-0.8-0.7-1.5-1.3-2.1
			c-0.5-0.6-1.2-1.1-1.9-1.4s-1.6-0.6-2.5-0.6c-1,0-1.8,0.2-2.6,0.5c-0.8,0.3-1.5,0.8-2,1.4c-0.6,0.6-1,1.3-1.4,2.1
			c-0.3,0.8-0.5,1.7-0.6,2.6H842.7z"/>
		<path class="st0" d="M849.9,483.2h4.2v-7.5h5.5v7.5h5v4.1h-5v13.3c0,0.6,0,1.1,0.1,1.5c0,0.4,0.2,0.8,0.3,1.1
			c0.2,0.3,0.4,0.5,0.8,0.7c0.4,0.1,0.8,0.2,1.4,0.2c0.4,0,0.8,0,1.2,0c0.4,0,0.8-0.1,1.2-0.2v4.3c-0.6,0.1-1.2,0.1-1.8,0.2
			c-0.6,0.1-1.2,0.1-1.8,0.1c-1.5,0-2.6-0.1-3.5-0.4c-0.9-0.3-1.6-0.7-2.1-1.2c-0.5-0.5-0.8-1.2-1-2c-0.2-0.8-0.3-1.7-0.3-2.8v-14.8
			h-4.2V483.2z"/>
		<path class="st0" d="M889.5,502.7c0,0.7,0.1,1.2,0.3,1.5c0.2,0.3,0.5,0.4,1,0.4c0.2,0,0.4,0,0.6,0c0.2,0,0.5,0,0.8-0.1v3.8
			c-0.2,0.1-0.4,0.1-0.7,0.2c-0.3,0.1-0.6,0.2-0.9,0.2c-0.3,0.1-0.6,0.1-1,0.1c-0.3,0-0.6,0-0.8,0c-1.1,0-2.1-0.2-2.8-0.7
			c-0.7-0.5-1.2-1.2-1.5-2.4c-1.1,1.1-2.4,1.8-4,2.3c-1.6,0.5-3.1,0.7-4.6,0.7c-1.1,0-2.2-0.2-3.2-0.5s-1.9-0.8-2.7-1.4
			c-0.8-0.6-1.4-1.4-1.9-2.3c-0.5-0.9-0.7-2-0.7-3.2c0-1.5,0.3-2.8,0.8-3.8c0.6-1,1.3-1.7,2.2-2.3c0.9-0.5,2-0.9,3.1-1.2
			c1.1-0.2,2.3-0.4,3.5-0.6c1-0.2,2-0.3,2.9-0.4c0.9-0.1,1.7-0.2,2.4-0.4c0.7-0.2,1.2-0.5,1.6-0.9c0.4-0.4,0.6-1,0.6-1.8
			c0-0.7-0.2-1.3-0.5-1.7c-0.3-0.4-0.8-0.8-1.3-1c-0.5-0.2-1.1-0.4-1.7-0.5c-0.6-0.1-1.2-0.1-1.7-0.1c-1.5,0-2.8,0.3-3.8,1
			c-1,0.6-1.6,1.6-1.7,3h-5.5c0.1-1.6,0.5-3,1.2-4c0.7-1.1,1.5-1.9,2.6-2.6c1-0.6,2.2-1.1,3.6-1.4c1.3-0.3,2.7-0.4,4.1-0.4
			c1.2,0,2.4,0.1,3.6,0.4c1.2,0.3,2.3,0.7,3.2,1.3c1,0.6,1.7,1.3,2.3,2.2c0.6,0.9,0.9,2,0.9,3.4V502.7z M884,495.7
			c-0.8,0.5-1.9,0.9-3.1,1s-2.5,0.3-3.7,0.5c-0.6,0.1-1.1,0.2-1.7,0.4c-0.5,0.2-1,0.4-1.4,0.7c-0.4,0.3-0.8,0.7-1,1.2
			c-0.2,0.5-0.4,1.1-0.4,1.8c0,0.6,0.2,1.1,0.5,1.5c0.4,0.4,0.8,0.7,1.3,1c0.5,0.2,1,0.4,1.6,0.5c0.6,0.1,1.1,0.1,1.6,0.1
			c0.6,0,1.3-0.1,2-0.2c0.7-0.2,1.4-0.4,2-0.8c0.6-0.4,1.2-0.9,1.6-1.5c0.4-0.6,0.6-1.3,0.6-2.2V495.7z"/>
		<path class="st0" d="M895.6,473.7h5.5v5.2h-5.5V473.7z M895.6,483.2h5.5v25h-5.5V483.2z"/>
		<path class="st0" d="M907.2,473.7h5.5v34.5h-5.5V473.7z"/>
	</g>
</g>
</svg>
